<svg width="20" height="20" viewBox="0 0 20 20" fill="none" xmlns="http://www.w3.org/2000/svg">
<path d="M6.87504 2.0835C4.23604 2.0835 2.08337 4.23616 2.08337 6.87516V13.1252C2.08337 15.7638 4.23596 17.9168 6.87504 17.9168H13.125C15.7638 17.9168 17.9167 15.7639 17.9167 13.1252V6.87516C17.9167 4.23608 15.7637 2.0835 13.125 2.0835H6.87504ZM6.87504 3.3335H13.125C15.0881 3.3335 16.6667 4.91174 16.6667 6.87516V13.1252C16.6667 15.0881 15.088 16.6668 13.125 16.6668H6.87504C4.91162 16.6668 3.33337 15.0882 3.33337 13.1252V6.87516C3.33337 4.91167 4.91154 3.3335 6.87504 3.3335ZM14.1667 5.00016C13.7063 5.00016 13.3334 5.37308 13.3334 5.8335C13.3334 6.29391 13.7063 6.66683 14.1667 6.66683C14.6271 6.66683 15 6.29391 15 5.8335C15 5.37308 14.6271 5.00016 14.1667 5.00016ZM10 5.8335C7.70636 5.8335 5.83337 7.70649 5.83337 10.0002C5.83337 12.2938 7.70636 14.1668 10 14.1668C12.2937 14.1668 14.1667 12.2938 14.1667 10.0002C14.1667 7.70649 12.2937 5.8335 10 5.8335ZM10 7.0835C11.618 7.0835 12.9167 8.38217 12.9167 10.0002C12.9167 11.6182 11.618 12.9168 10 12.9168C8.38205 12.9168 7.08337 11.6182 7.08337 10.0002C7.08337 8.38217 8.38205 7.0835 10 7.0835Z" fill="white"/>
</svg>
