<svg width="19" height="19" viewBox="0 0 19 19" fill="none" xmlns="http://www.w3.org/2000/svg">
<g clip-path="url(#clip0_85_468)">
<path d="M9.50009 18.9631C14.7263 18.9631 18.9631 14.7263 18.9631 9.50009C18.9631 4.27383 14.7263 0.0371094 9.50009 0.0371094C4.27383 0.0371094 0.0371094 4.27383 0.0371094 9.50009C0.0371094 14.7263 4.27383 18.9631 9.50009 18.9631Z" fill="white" stroke="white" stroke-width="5"/>
<path d="M11.4754 4.77736C11.4754 4.77736 10.4921 5.22163 10.3785 6.12869C10.2649 7.03574 9.41592 7.94294 8.5841 8.20684C7.76752 8.46615 7.21307 9.21089 6.28144 8.75196C5.10516 8.17248 3.17731 7.23403 2.35156 7.45632C2.53687 7.23819 2.90508 6.90099 3.00386 6.63236C3.15032 6.22467 3.2253 5.96567 3.2718 5.64831C3.36791 4.99346 4.18559 3.70355 5.28486 3.04262C5.6739 2.80938 6.2819 2.06557 6.94681 2.21199C7.65393 2.36771 8.19525 1.8991 8.76436 2.21528C9.33348 2.53145 10.0334 3.40817 10.2939 3.8708C10.6901 4.5744 11.4754 4.77736 11.4754 4.77736Z" fill="#95001A"/>
<path d="M10.2635 5.22998C10.2635 5.22998 9.9204 7.98432 8.02958 7.8189C6.13876 7.65349 6.7643 6.89363 3.23352 6.77472C3.23352 6.77472 4.1773 5.88943 6.06205 5.68817C7.9468 5.48692 10.2635 5.22998 10.2635 5.22998Z" fill="#780016"/>
<path d="M8.90403 3.02988C9.45046 3.66168 9.88771 4.80897 11.4013 4.78439C11.4013 4.78439 10.0802 5.16305 9.13556 4.46347C8.59917 4.066 7.59313 3.88427 7.59313 3.88427L3.23356 6.77473L2.27319 7.46201C3.12738 6.74126 3.90056 6.0513 4.36601 5.19401C4.82612 4.34678 5.39982 4.25675 6.23228 3.74233C6.92711 3.31297 7.02447 3.02014 7.13777 3.04103C8.423 3.278 8.49883 2.56138 8.90403 3.02988Z" fill="#69001F"/>
<path d="M10.9822 4.84142C10.5213 5.02609 10.4046 5.21639 10.2051 5.38743C9.59204 5.9127 9.17635 6.21229 8.69846 6.32188C7.81555 6.52417 6.65178 6.35666 4.86537 6.4424C3.9795 6.48505 3.46345 6.67461 3.11353 6.86389C3.11353 6.86389 4.28021 5.53288 5.33654 4.98332C6.31526 4.47418 6.6422 3.96654 7.29837 3.7996C7.7573 3.68284 7.86403 3.75934 8.38912 3.66733C8.61966 3.62693 8.92949 3.97245 9.06928 4.08261C9.53325 4.44824 10.1968 4.83876 10.9822 4.84142Z" fill="#36000A"/>
<path d="M5.46173 8.07836C6.13806 8.66095 7.2092 9.21169 8.34683 8.71174C9.48446 8.21179 10.1239 7.41285 10.3794 6.5249C10.3942 6.85736 10.3535 7.54376 9.7642 8.24674C9.56724 8.48191 9.27669 8.82 8.71483 9.07279C7.91262 9.43383 7.14611 9.35534 6.97536 9.33461C6.75041 9.30706 6.52561 9.25242 5.8481 8.92544C4.4947 8.27236 4.18534 7.9085 3.2346 7.64416C2.91962 7.55739 2.59808 7.49648 2.27319 7.46201L2.67674 7.17324C2.67674 7.17324 4.78555 7.49563 5.46173 8.07836Z" fill="#69001F"/>
<path d="M11.4014 4.78418C11.4014 4.78418 10.5051 5.30027 9.69653 6.24791C9.69653 6.24791 10.1726 4.99684 10.7832 4.83423C10.7826 4.83423 11.2736 4.81557 11.4014 4.78418Z" fill="#810716"/>
<path d="M8.78144 1.9673C9.17331 2.17358 9.37698 2.25104 9.64555 2.6373C9.84245 2.92049 10.1032 3.47001 10.3194 3.82683C10.6943 4.44556 10.9939 4.48852 11.3969 4.78265C11.3969 4.78265 10.392 4.69733 9.69319 3.30011C9.51081 2.93541 9.16907 2.45362 8.69768 2.34391C8.47777 2.29273 8.22965 2.32252 7.95632 2.48295C7.42129 2.79699 7.13633 2.43711 6.74952 2.54976C6.35188 2.66557 6.31605 2.98465 5.66608 3.15792C3.54748 3.93718 4.02448 6.39829 2.27319 7.46205C2.27319 7.46219 2.80525 7.00961 3.05089 6.22312C3.44993 4.94549 3.81452 3.93387 4.90638 3.1807C5.34276 2.87968 5.68404 2.63896 6.45224 2.13792C6.73329 1.9546 7.3194 2.12917 7.68976 2.06145C8.49469 1.91427 8.40016 1.76659 8.78144 1.9673Z" fill="#B50018"/>
<path d="M7.94268 5.70175C7.94268 5.70175 5.63471 5.09712 3.78357 6.58484C3.78357 6.58484 7.22414 7.3805 6.63415 9.06C5.43106 12.485 8.46263 12.6029 11.0439 9.96054C12.0688 8.91117 12.0939 6.67023 10.4002 5.13823C10.4002 5.13823 9.02182 4.69488 7.94268 5.70175Z" fill="#F21B4E"/>
<path d="M11.661 7.86383C11.4053 8.37682 10.0261 10.3319 8.53632 10.4745C6.65897 10.654 7.98557 8.11766 6.64416 7.46206C5.30276 6.80647 4.51062 6.70577 4.51062 6.70577C4.51062 6.70577 4.80073 6.23825 5.51127 5.78628C6.81136 5.53763 7.94262 5.70172 7.94262 5.70172C8.59126 5.09662 9.32927 4.98822 9.82226 5.00984C9.9979 5.03117 10.1422 5.08557 10.3282 5.11726C11.2638 5.9633 11.6798 6.9513 11.661 7.86383Z" fill="#FE677E"/>
<path d="M11.5864 8.99989C11.5716 9.03929 11.5633 9.39752 11.0787 9.92694C7.88781 12.9804 5.46298 12.2671 6.54404 9.09156C7.11789 7.40659 3.72083 6.60565 3.72083 6.60565C5.44608 5.0584 7.94246 5.70177 7.94246 5.70177C7.95342 5.69155 7.96423 5.68177 7.97518 5.67215C7.97549 5.67435 7.97593 5.67652 7.97652 5.67866C8.08027 5.73819 8.18082 5.80314 8.27773 5.87325L8.24708 5.76678L7.98185 5.66667L7.97607 5.67185C7.98342 5.66451 8.23535 5.34765 8.70857 5.1431C9.18988 4.93505 10.0249 4.86259 10.4354 5.1633C9.66321 4.89196 8.69958 5.30267 8.52564 6.06474L8.51586 6.06089C9.2267 6.67754 9.65986 7.56371 9.55146 8.38902C9.21307 7.49781 8.90075 6.88309 8.26796 6.14737C7.90884 6.0289 6.68443 5.65956 5.892 5.82883C4.95473 6.0289 4.77761 6.73633 5.36183 7.12936C5.94605 7.52239 6.69702 7.65612 6.838 8.31127C6.97898 8.96643 6.58313 9.6626 6.52864 10.2861C6.46673 10.9944 6.68665 11.6054 7.41288 11.6189C8.61731 11.6408 10.6444 10.4845 11.5864 8.99989Z" fill="#B6044A"/>
<path d="M8.27788 5.87328C8.18096 5.80317 8.08042 5.73822 7.97667 5.67869C7.97609 5.67655 7.97564 5.67437 7.97534 5.67218L7.98112 5.66699L8.24693 5.76695L8.27788 5.87328Z" fill="#D33886"/>
<path d="M10.7425 5.69247C10.7701 5.7326 11.0619 6.16369 10.9171 6.25121C10.7874 6.32985 10.2917 6.14118 10.1359 5.81568C10.0308 5.59591 10.0749 5.3018 10.2072 5.26049C10.3679 5.21043 10.6381 5.54053 10.7425 5.69247Z" fill="#FFD6EE"/>
<path d="M8.298 6.50172C8.81632 7.00182 9.02365 7.60381 8.94723 7.63506C8.92961 7.64231 8.80359 7.51155 8.55213 7.25002C8.19552 6.87905 8.09986 6.76532 8.00656 6.6156C7.98879 6.58687 7.76162 6.21871 7.8367 6.18051C7.90038 6.14807 8.15643 6.36503 8.298 6.50172Z" fill="#FFD6EE"/>
<path d="M7.09192 10.9027C7.0432 10.9513 7.30324 11.2146 7.69153 11.2598C7.8682 11.2803 8.07997 11.2567 8.09522 11.2163C8.10263 11.1966 8.0656 11.169 7.75254 11.0713C7.33079 10.9399 7.12035 10.8737 7.09192 10.9027Z" fill="#FFD6EE"/>
<path d="M6.963 10.2617C6.94552 10.3236 7.07822 10.3846 7.12872 10.3629C7.15968 10.3494 7.16264 10.3036 7.15301 10.2754C7.14371 10.2518 7.12665 10.2321 7.10464 10.2196C7.08264 10.2071 7.05701 10.2025 7.03201 10.2065C6.99943 10.2133 6.96981 10.2376 6.963 10.2617Z" fill="#FFD6EE"/>
<path d="M7.08477 6.10176C7.06878 6.226 6.69337 6.36505 6.3809 6.36046C6.08101 6.35602 5.76854 6.218 5.79949 6.09391C5.82911 5.97692 6.15639 5.88925 6.38919 5.87503C6.7255 5.85386 7.10136 5.97188 7.08477 6.10176Z" fill="#FFD6EE"/>
<path d="M9.41003 2.7196C9.60473 3.19686 9.34378 2.67119 9.07864 2.43385C8.83929 2.21958 8.50645 2.20678 8.56565 2.13868C8.57605 2.11734 8.75871 2.11672 8.89984 2.16787C9.11373 2.24538 9.31333 2.48254 9.41003 2.7196Z" fill="#F79B7F"/>
<path d="M5.54031 4.1254C5.58785 4.15205 6.2182 3.74348 6.51216 3.5332C6.82608 3.34675 6.83114 3.2005 7.00606 3.1241C7.08518 3.08954 7.15106 3.05956 7.40784 3.06944C7.20892 3.00342 7.12174 2.99508 7.08273 2.83224C7.04233 2.66361 6.78641 2.14973 6.63106 2.16898C6.47571 2.18824 6.52625 2.7217 6.2282 3.23026C5.91825 3.75911 5.48359 4.09371 5.54031 4.1254Z" fill="#B50018"/>
<path d="M6.5189 3.11971C6.48077 3.29442 6.46222 3.38178 6.48805 3.38906C6.55825 3.40865 6.85672 3.19493 6.84684 2.98763C6.8406 2.8578 6.71407 2.74497 6.64266 2.76317C6.62706 2.76733 6.59222 2.78345 6.5189 3.11971Z" fill="#F79B7F"/>
<path d="M3.94907 4.66971C3.69875 5.57792 4.05901 4.80629 4.31797 4.38025C4.58048 3.94837 5.2477 3.40979 4.76482 3.60369C4.43409 3.73651 4.01678 4.42406 3.94907 4.66971Z" fill="#F79B7F"/>
<path d="M7.43896 3.06009C8.06689 3.16394 8.45628 2.86254 8.74584 2.93799C8.9402 2.98864 9.03201 3.27877 9.23835 3.45815C8.82144 3.03298 8.85452 2.41221 8.60417 2.30104C8.30234 2.24925 8.74756 2.56585 8.35397 2.79978C8.16793 2.99169 7.69632 3.05456 7.43896 3.06009Z" fill="#B50018"/>
<path d="M8.2699 2.71496C8.15618 2.817 7.87432 2.95439 7.88858 2.97234C7.92745 3.02099 8.43347 2.85343 8.5302 2.70482C8.65853 2.52928 8.56452 2.33073 8.50266 2.31899C8.36452 2.29274 8.48872 2.51854 8.2699 2.71496Z" fill="#F79B7F"/>
<path d="M6.59328 2.20544C6.56345 2.27987 6.90046 2.47939 7.14821 2.41755C7.24463 2.3935 7.37818 2.29129 7.37673 2.23761C7.37467 2.16452 7.0594 2.15433 6.91364 2.15494C6.81155 2.15536 6.61661 2.14743 6.59328 2.20544Z" fill="#F79B7F"/>
<path d="M3.70654 15.8859V10.5792L4.96842 10.1511L6.26169 11.296L6.5641 11.5636L6.57194 11.5705L6.87479 11.8386V9.50423L8.51593 8.94727V14.2541L7.57274 14.5741L6.28583 13.2512L5.672 12.6205V15.219L3.70654 15.8859Z" fill="#610300"/>
<path d="M8.8363 14.1268V8.83881L9.73136 8.53508L10.4271 8.29902L10.4335 8.2968L11.3621 7.98181L12.058 7.74561V9.32943L11.3621 9.56549L10.4335 9.88063L10.4271 9.88285V10.2626L10.4335 10.2603L11.3621 9.94534V11.529L10.4335 11.8442L10.4271 11.8462V13.6057L8.8363 14.1268Z" fill="#610300"/>
<path d="M15.5664 11.8559L13.9692 12.4006V8.68089L12.3721 9.22275V7.63892L13.9692 7.09706L15.5662 6.55519H15.5664L17.1634 6.01318V7.59701L15.5664 8.13887H15.5662V11.8373L15.5664 11.8371V11.8559Z" fill="#610300"/>
<path d="M3.71387 15.883V10.5962L4.14333 10.9797V16.2665L3.71387 15.883Z" fill="white"/>
<path d="M3.72111 10.6126L4.13577 10.9828V16.2497L3.72111 15.8794V10.6126ZM3.7063 10.5796V15.8863L4.15058 16.283V10.9763L3.7063 10.5796Z" fill="#231F20"/>
<path d="M3.72083 10.5825L4.96657 10.1597L5.3981 10.5451L4.15236 10.9679L3.72083 10.5825Z" fill="white"/>
<path d="M4.96478 10.1682L5.38432 10.5423L4.15516 10.9596L3.73636 10.5856L4.96552 10.1682H4.96478ZM4.96892 10.1514L3.7063 10.5802L4.15057 10.977L5.41246 10.5488L4.96818 10.152L4.96892 10.1514Z" fill="#231F20"/>
<path d="M6.88208 11.8355V9.521L7.31154 9.90455V12.2191L6.88208 11.8355Z" fill="white"/>
<path d="M6.88932 9.53708L7.30397 9.9073V12.202L6.88932 11.8317V9.53708ZM6.87451 9.50391V11.8384L7.31878 12.2351V9.90079L6.87451 9.50391Z" fill="#231F20"/>
<path d="M7.5776 14.5689L6.1189 13.0694L6.12215 13.0342L7.86445 14.8251L7.5776 14.5689Z" fill="white"/>
<path d="M6.12789 13.0509L7.71246 14.679L7.58332 14.5636L6.12685 13.0667L6.12833 13.0509H6.12789ZM6.11649 13.0176L6.11145 13.0722L7.57295 14.5744L8.01723 14.9712L6.11604 13.0176H6.11649Z" fill="#231F20"/>
<path d="M8.84375 14.1235V8.85547L9.27321 9.23902V14.507L8.84375 14.1235Z" fill="white"/>
<path d="M8.85099 8.87189L9.26564 9.24212V14.4903L8.85099 14.12V8.87189ZM8.83618 8.83887V14.1267L9.28045 14.5236V9.2356L8.83618 8.83887Z" fill="#231F20"/>
<path d="M10.4414 10.2652L11.3603 9.95361L11.7918 10.339L10.8729 10.6507L10.4414 10.2652Z" fill="white"/>
<path d="M11.3587 9.96228L11.7776 10.3363L10.8743 10.6426L10.4559 10.2692L11.3592 9.96302L11.3587 9.96228ZM11.3627 9.94629L10.4276 10.2633L10.8719 10.6602L11.8069 10.343L11.3627 9.94629Z" fill="#231F20"/>
<path d="M14.4059 12.7879C14.3563 12.7654 14.122 12.5423 13.9764 12.3974V8.69727L14.4059 9.08082V12.7879Z" fill="white"/>
<path d="M13.9838 8.71398L14.3985 9.08421V12.7754C14.3392 12.7373 14.1507 12.5605 13.9838 12.3945V8.71398ZM13.969 8.68081V12.4004C13.969 12.4004 14.3674 12.7973 14.4124 12.7973H14.4133V9.07755L13.969 8.68066V8.68081Z" fill="#231F20"/>
<path d="M12.3795 9.21976V7.65576L12.809 8.03932V9.60331L12.3795 9.21976Z" fill="white"/>
<path d="M12.3868 7.67218L12.8014 8.04241V9.5867L12.3868 9.21647V7.67218ZM12.3719 7.63916V9.22373L12.8162 9.62046V8.03589L12.3719 7.63916Z" fill="#231F20"/>
<path d="M12.3865 7.64175L17.1617 6.02148L17.5934 6.40682L12.818 8.02723L12.3865 7.64175Z" fill="white"/>
<path d="M17.1599 6.02992L17.5788 6.40385L12.8196 8.01805L12.4008 7.64486L17.1599 6.03066V6.02992ZM17.1633 6.01392L12.3719 7.63893L12.8162 8.03567L17.6075 6.40992L17.1633 6.01318V6.01392Z" fill="#231F20"/>
<path d="M6.88904 9.50754L8.51404 8.95605L8.94572 9.34139L7.32057 9.89287L6.88904 9.50754Z" fill="white"/>
<path d="M8.51224 8.9643L8.93119 9.33837L7.32219 9.88408L6.90339 9.51001L8.51224 8.964V8.9643ZM8.51565 8.94727L6.87451 9.50408L7.31878 9.90097L8.95992 9.344L8.51565 8.94727Z" fill="#231F20"/>
<path d="M8.85071 8.84163L12.0563 7.75391L12.488 8.13924L9.28225 9.22696L8.85071 8.84163Z" fill="white"/>
<path d="M12.0545 7.76234L12.4735 8.13656L9.28386 9.21866L8.86447 8.84459L12.0539 7.76234H12.0545ZM12.0573 7.74561L8.83618 8.83881L9.28046 9.23554L12.5022 8.14234L12.0579 7.74561H12.0573Z" fill="#231F20"/>
<path d="M4.15076 16.2829V10.9762L5.41264 10.5481L6.70591 11.693L7.00831 11.9606L7.01616 11.9675L7.319 12.2356V9.90121L8.96014 9.34424V14.6511L8.01695 14.9711L6.73005 13.6484L6.11621 13.0175V15.616L4.15076 16.2829Z" fill="#050505"/>
<path d="M9.28064 14.5233V9.23529L10.1757 8.93171L10.8714 8.6955L10.8778 8.69328L11.8065 8.37829L12.5023 8.14209V9.72592L11.8065 9.96197L10.8778 10.2773L10.8714 10.2793V10.659L10.8778 10.657L11.8065 10.3418V11.9255L10.8778 12.2406L10.8714 12.2427V14.0022L9.28064 14.5233Z" fill="#050505"/>
<path d="M16.0107 12.2529L14.4136 12.7976V9.07787L12.8164 9.61973V8.0359L14.4136 7.49418L16.0106 6.95217H16.0107L17.6077 6.41016V7.99399L16.0107 8.53586H16.0106V12.2343L16.0107 12.2341V12.2529Z" fill="#050505"/>
</g>
<defs>
<clipPath id="clip0_85_468">
<rect width="19" height="19" rx="9.5" fill="white"/>
</clipPath>
</defs>
</svg>
