<svg width="20" height="20" viewBox="0 0 20 20" fill="none" xmlns="http://www.w3.org/2000/svg">
<path d="M6.45837 2.50005C6.41162 2.49944 6.36494 2.50409 6.31921 2.51389C5.82373 2.55163 5.38239 2.78201 5.06759 3.134C5.03183 3.16447 4.99961 3.19886 4.97156 3.23654L2.46098 6.53814C2.46016 6.53949 2.45935 6.54085 2.45854 6.54221C2.21546 6.8665 2.08337 7.261 2.08337 7.66688V15.2084C2.08337 16.2365 2.93025 17.0834 3.95837 17.0834H6.25004V18.5417C6.25006 18.7075 6.31591 18.8664 6.43312 18.9836C6.55032 19.1008 6.70929 19.1667 6.87504 19.1667H7.77999C8.1667 19.1667 8.53776 19.0128 8.81108 18.7395L10.4672 17.0834H12.5725C13.1006 17.0834 13.6041 16.8598 13.9592 16.4698L17.1045 13.0103H17.1037C17.6267 12.4353 17.9167 11.6855 17.9167 10.9083V4.37505C17.9167 3.34693 17.0698 2.50005 16.0417 2.50005H6.45837ZM6.45837 3.75005H16.0417C16.3944 3.75005 16.6667 4.02234 16.6667 4.37505V10.9083C16.6667 11.3752 16.493 11.8247 16.1792 12.1696L15.1213 13.3334H10.2084C10.0426 13.3334 9.88367 13.3993 9.76648 13.5165L9.16671 14.1163V13.9584C9.16669 13.7926 9.10084 13.6337 8.98363 13.5165C8.86642 13.3993 8.70746 13.3334 8.54171 13.3334H5.83337V4.37505C5.83337 4.25334 5.86756 4.14258 5.92452 4.0479L5.96684 3.99257C5.97626 3.98016 5.98522 3.9674 5.99369 3.95432C6.10694 3.82875 6.27046 3.75005 6.45837 3.75005ZM4.58337 5.81223V13.5417C4.58337 14.1099 5.05688 14.5834 5.62504 14.5834H7.91671V15.6251C7.91676 15.7486 7.95344 15.8694 8.02212 15.9722C8.0908 16.0749 8.1884 16.155 8.30258 16.2023C8.41676 16.2496 8.5424 16.262 8.66361 16.2379C8.78483 16.2138 8.89618 16.1543 8.9836 16.0669L10.4672 14.5834H13.9844L13.0347 15.6283C12.9157 15.7591 12.7485 15.8334 12.5725 15.8334H10.2084C10.0426 15.8334 9.88367 15.8993 9.76648 16.0165L7.92729 17.8557C7.8881 17.8949 7.83494 17.9167 7.77999 17.9167H7.50004V16.4584C7.50002 16.2926 7.43417 16.1337 7.31696 16.0165C7.19976 15.8993 7.0408 15.8334 6.87504 15.8334H3.95837C3.60567 15.8334 3.33337 15.5611 3.33337 15.2084V7.66688C3.33337 7.53193 3.37761 7.39991 3.4587 7.29172L4.58337 5.81223ZM9.78194 6.2411C9.61632 6.24369 9.4585 6.31191 9.34315 6.43077C9.22779 6.54964 9.16433 6.70943 9.16671 6.87505V10.2084C9.16554 10.2912 9.18084 10.3734 9.21172 10.4503C9.2426 10.5271 9.28845 10.5971 9.34661 10.6561C9.40476 10.7151 9.47405 10.7619 9.55047 10.7939C9.62688 10.8258 9.70888 10.8423 9.79171 10.8423C9.87454 10.8423 9.95654 10.8258 10.0329 10.7939C10.1094 10.7619 10.1787 10.7151 10.2368 10.6561C10.295 10.5971 10.3408 10.5271 10.3717 10.4503C10.4026 10.3734 10.4179 10.2912 10.4167 10.2084V6.87505C10.4179 6.7914 10.4023 6.70836 10.3708 6.63085C10.3393 6.55334 10.2926 6.48294 10.2334 6.42382C10.1742 6.3647 10.1038 6.31806 10.0262 6.28668C9.94865 6.25529 9.86559 6.23979 9.78194 6.2411ZM13.1153 6.2411C12.9497 6.24369 12.7918 6.31191 12.6765 6.43077C12.5611 6.54964 12.4977 6.70943 12.5 6.87505V10.2084C12.4989 10.2912 12.5142 10.3734 12.5451 10.4503C12.5759 10.5271 12.6218 10.5971 12.6799 10.6561C12.7381 10.7151 12.8074 10.7619 12.8838 10.7939C12.9602 10.8258 13.0422 10.8423 13.125 10.8423C13.2079 10.8423 13.2899 10.8258 13.3663 10.7939C13.4427 10.7619 13.512 10.7151 13.5701 10.6561C13.6283 10.5971 13.6741 10.5271 13.705 10.4503C13.7359 10.3734 13.7512 10.2912 13.75 10.2084V6.87505C13.7512 6.7914 13.7356 6.70836 13.7041 6.63085C13.6727 6.55334 13.6259 6.48294 13.5667 6.42382C13.5075 6.3647 13.4371 6.31806 13.3595 6.28668C13.282 6.25529 13.1989 6.23979 13.1153 6.2411Z" fill="white"/>
</svg>
